<svg width="588" height="432" viewBox="0 0 588 432" fill="none" xmlns="http://www.w3.org/2000/svg">
<path d="M296.575 142.801C296.088 143.121 295.626 143.48 295.194 143.875L244.768 130.81L241.328 118.446L222.288 121.284L226.285 143.773C226.608 145.59 227.502 147.251 228.833 148.508C230.164 149.764 231.861 150.548 233.667 150.741L292.549 157.043C293.508 159.097 295.061 160.806 296.999 161.942C298.938 163.078 301.171 163.587 303.401 163.402C305.631 163.216 307.753 162.345 309.484 160.904C311.215 159.463 312.474 157.52 313.092 155.335C313.71 153.149 313.659 150.824 312.945 148.669C312.231 146.513 310.888 144.63 309.096 143.269C307.303 141.909 305.145 141.135 302.908 141.051C300.672 140.967 298.464 141.578 296.577 142.801H296.575Z" fill="#FFB6B6"/>
<path d="M218.885 132.506L231.876 143.896L250.051 159.818L258.079 118.077L258.918 113.737L259.58 110.292L241.163 77.6915L225.811 78.5873L224.761 78.6513L224.741 78.8859L224.499 81.0721L221.351 109.845L221.278 110.538L218.885 132.506Z" fill="#E6E6E6"/>
<path d="M303.798 417.965H316.663L322.784 367.535H303.796L303.798 417.965Z" fill="#FFB6B6"/>
<path d="M169.479 419.031H182.344L188.465 368.602H169.477L169.479 419.031Z" fill="#FFB6B6"/>
<path d="M159.196 396.823L193.825 402.155L244.205 228.88L297.713 403.221L336.539 397.889L286.17 195.266V179.27L279.349 155.275L280.062 148.78L285.026 103.361L287.177 83.6636L287.317 82.3913C287.433 81.3235 287.155 80.2497 286.536 79.3789C285.916 78.5082 285 77.9029 283.966 77.6809L267.806 74.2256H241.397L225.814 78.5873L224.744 78.8859L224.261 79.0246L224.502 81.0722L228.154 112.191L228.354 113.897L231.879 143.896L232.656 150.476C202.224 172.871 201.175 195.266 201.175 195.266L159.196 396.823Z" fill="#2F2E41"/>
<path d="M257.793 60.7352C272.027 60.7352 283.566 49.0083 283.566 34.5424C283.566 20.0766 272.027 8.34967 257.793 8.34967C243.558 8.34967 232.019 20.0766 232.019 34.5424C232.019 49.0083 243.558 60.7352 257.793 60.7352Z" fill="#FFB6B6"/>
<path d="M230.721 144.458L229.769 151.86L280.754 158.636L281.706 151.234L230.721 144.458Z" fill="#E1BAFD"/>
<path d="M350.093 153.465C349.606 153.786 349.144 154.145 348.712 154.539L298.286 141.474L294.846 129.111L275.806 131.949L279.803 154.438C280.126 156.254 281.02 157.916 282.351 159.172C283.682 160.429 285.379 161.212 287.185 161.406L346.066 167.707C347.026 169.762 348.578 171.471 350.517 172.606C352.456 173.742 354.689 174.251 356.919 174.066C359.149 173.88 361.271 173.009 363.002 171.568C364.733 170.127 365.992 168.185 366.61 165.999C367.228 163.814 367.177 161.488 366.463 159.333C365.749 157.178 364.406 155.295 362.613 153.934C360.82 152.573 358.662 151.799 356.426 151.716C354.19 151.632 351.982 152.242 350.095 153.465H350.093Z" fill="#FFB6B6"/>
<path d="M272.528 84.3567L281.447 77.4249C283.861 76.495 287.163 79.1365 287.744 81.6906L300.336 133.946L274.102 153.142L270.429 147.276L272.528 84.3567Z" fill="#E6E6E6"/>
<path d="M277.542 12.8565C282.362 12.256 287.651 12.6805 291.408 15.8073C295.165 18.9341 296.378 25.4351 292.821 28.7944C289.672 31.7686 284.748 31.0691 280.529 31.9147C276.896 32.7423 273.64 34.7848 271.284 37.7154C268.928 40.6459 267.608 44.2951 267.534 48.0787C267.597 58.9286 277.843 67.1455 279.684 77.8323C280.943 85.1267 277.912 92.8029 272.679 97.956C267.446 103.109 260.251 105.893 253.002 106.647C245.753 107.401 238.423 106.25 231.379 104.357C224.305 102.456 217.34 99.7593 211.405 95.4114C205.47 91.0636 200.604 84.9326 198.698 77.7534C196.793 70.5741 198.161 62.3423 203.072 56.8299C208.696 50.5177 218.051 48.3474 222.916 41.4135C228.372 33.6413 226.35 22.5738 230.764 14.1479C233.711 8.52245 239.29 4.68542 245.237 2.66345C251.184 0.64149 257.534 0.24264 263.802 0.0474817C267.097 -0.059162 270.492 -0.0900818 273.561 1.13099C276.631 2.35206 279.333 5.13332 279.488 8.47979C279.644 11.8263 277.542 12.8565 277.542 12.8565Z" fill="#2F2E41"/>
<path d="M539.212 307.535L543.802 295.099L543.966 295.004L580.944 273.53C581.342 273.3 581.773 273.133 582.221 273.037C583.251 272.817 584.325 272.979 585.247 273.494C586.17 274.009 586.88 274.842 587.25 275.844C587.62 276.845 587.624 277.948 587.262 278.952C586.901 279.957 586.197 280.797 585.279 281.319L539.212 307.535Z" fill="#3F3D56"/>
<path d="M403.231 307.535L357.17 281.321C356.252 280.798 355.548 279.959 355.186 278.954C354.824 277.949 354.829 276.846 355.199 275.844C355.568 274.843 356.279 274.009 357.202 273.494C358.125 272.979 359.199 272.817 360.229 273.037C360.677 273.133 361.108 273.299 361.506 273.53L398.648 295.099L403.231 307.535Z" fill="#3F3D56"/>
<path d="M542.887 309.079H399.558L387.503 251.905H554.942L542.887 309.079Z" fill="#3F3D56"/>
<path d="M547.608 304.577H394.838L384.33 255.924C384.01 254.443 384.021 252.908 384.362 251.432C384.703 249.956 385.365 248.576 386.3 247.395C387.235 246.213 388.419 245.26 389.765 244.605C391.11 243.95 392.583 243.61 394.075 243.61H548.372C549.863 243.61 551.336 243.95 552.682 244.605C554.027 245.26 555.211 246.213 556.146 247.395C557.081 248.576 557.743 249.956 558.084 251.432C558.425 252.908 558.436 254.443 558.116 255.924L547.608 304.577ZM396.526 302.444H545.92L556.067 255.465C556.319 254.296 556.311 253.084 556.041 251.919C555.772 250.753 555.249 249.664 554.511 248.731C553.772 247.798 552.838 247.045 551.775 246.528C550.713 246.011 549.55 245.742 548.372 245.743H394.075C392.897 245.743 391.733 246.011 390.671 246.528C389.608 247.045 388.673 247.798 387.935 248.731C387.197 249.664 386.674 250.754 386.404 251.919C386.135 253.085 386.126 254.297 386.379 255.466L396.526 302.444Z" fill="#3F3D56"/>
<path opacity="0.1" d="M542.887 309.079H399.558L387.503 251.905H554.942L542.887 309.079Z" fill="black"/>
<path d="M541.499 430.744H400.947C399.04 430.742 397.213 429.972 395.864 428.602C394.516 427.232 393.758 425.374 393.756 423.436V301.303H548.69V423.436C548.688 425.374 547.93 427.232 546.582 428.602C545.233 429.972 543.406 430.742 541.499 430.744ZM395.854 303.436V423.436C395.856 424.809 396.393 426.124 397.348 427.094C398.302 428.064 399.597 428.61 400.947 428.611H541.499C542.849 428.61 544.143 428.064 545.098 427.094C546.053 426.124 546.59 424.809 546.592 423.436V303.436H395.854Z" fill="#3F3D56"/>
<path d="M399.414 306.208V419.973C399.415 421.528 400.024 423.019 401.106 424.119C402.188 425.218 403.655 425.837 405.185 425.839H537.261C538.791 425.837 540.258 425.218 541.34 424.119C542.422 423.019 543.03 421.528 543.032 419.973V306.208H399.414Z" fill="#3F3D56"/>
<path d="M555.467 252.438H386.979V251.905C386.981 250.087 387.692 248.345 388.956 247.06C390.221 245.775 391.935 245.052 393.724 245.05H548.722C550.51 245.052 552.225 245.775 553.489 247.06C554.754 248.345 555.465 250.087 555.467 251.905V252.438Z" fill="#E1BAFD"/>
<path d="M25.7567 355.114C20.5858 355.12 15.6284 357.21 11.9719 360.926C8.31549 364.641 6.25866 369.679 6.25269 374.934V420.421C6.25432 421.835 6.80764 423.19 7.79126 424.19C8.77488 425.19 10.1085 425.752 11.4995 425.754H87.7541C89.1451 425.752 90.4787 425.19 91.4624 424.19C92.446 423.19 92.9993 421.835 93.0009 420.421V360.446C92.9993 359.032 92.446 357.677 91.4624 356.677C90.4787 355.678 89.1451 355.115 87.7541 355.114H25.7567Z" fill="#3F3D56"/>
<path d="M104.841 350.564H27.7699C25.8144 350.561 23.9396 349.771 22.5568 348.366C21.1739 346.961 20.396 345.056 20.3936 343.068V277.323C20.3958 275.336 21.1736 273.43 22.5565 272.025C23.9393 270.62 25.8142 269.829 27.7699 269.827H96.5461C102.429 269.834 108.069 272.212 112.229 276.439C116.389 280.667 118.729 286.399 118.736 292.377V336.444C118.731 340.187 117.266 343.776 114.661 346.423C112.056 349.071 108.525 350.559 104.841 350.564ZM27.7699 271.96C26.3707 271.961 25.0292 272.527 24.0398 273.532C23.0504 274.538 22.4939 275.901 22.4923 277.323V343.068C22.4941 344.49 23.0507 345.853 24.0401 346.859C25.0295 347.864 26.3708 348.429 27.7699 348.431H104.841C107.968 348.427 110.967 347.163 113.178 344.916C115.389 342.669 116.633 339.622 116.637 336.444V292.377C116.631 286.964 114.512 281.774 110.746 277.947C106.979 274.119 101.873 271.966 96.5461 271.96L27.7699 271.96Z" fill="#3F3D56"/>
<path d="M91.4213 430.802H7.8319C5.87641 430.799 4.00161 430.009 2.61877 428.604C1.23593 427.199 0.457977 425.294 0.455566 423.306V372.051C0.461896 366.222 2.74314 360.633 6.79883 356.512C10.8545 352.39 16.3534 350.071 22.0891 350.065H91.4213C93.3769 350.067 95.2518 350.858 96.6347 352.263C98.0175 353.668 98.7954 355.574 98.7976 357.561V423.306C98.7952 425.294 98.0172 427.199 96.6344 428.604C95.2516 430.009 93.3768 430.799 91.4213 430.802ZM22.0891 352.198C16.9099 352.204 11.9445 354.297 8.28235 358.019C4.62016 361.741 2.56017 366.787 2.55431 372.051V423.306C2.55609 424.728 3.11275 426.091 4.10213 427.096C5.09152 428.102 6.43283 428.667 7.8319 428.669H91.4213C92.8203 428.667 94.1617 428.102 95.1511 427.096C96.1404 426.091 96.6971 424.728 96.6989 423.306V357.561C96.6973 356.139 96.1407 354.776 95.1513 353.77C94.162 352.765 92.8205 352.199 91.4213 352.198H22.0891Z" fill="#3F3D56"/>
<path d="M31.4375 274.876C30.0465 274.877 28.7129 275.44 27.7292 276.439C26.7456 277.439 26.1923 278.794 26.1907 280.208V340.184C26.1923 341.597 26.7456 342.953 27.7292 343.952C28.7129 344.952 30.0465 345.514 31.4375 345.516H101.174C104.293 345.512 107.284 344.251 109.489 342.01C111.695 339.768 112.936 336.729 112.939 333.559V295.262C112.933 289.857 110.817 284.675 107.057 280.853C103.296 277.031 98.1969 274.882 92.8784 274.876H31.4375Z" fill="#E6E6E6"/>
<path d="M75.2014 290.74H64.3695C63.674 290.739 63.0071 290.458 62.5153 289.958C62.0235 289.458 61.7468 288.781 61.7461 288.074V269.01H77.8248V288.074C77.8241 288.781 77.5475 289.458 77.0556 289.958C76.5638 290.458 75.8969 290.739 75.2014 290.74Z" fill="#3F3D56"/>
<path d="M303.267 407.266L318.657 406.332V413.033L333.289 423.303C334.012 423.81 334.556 424.539 334.843 425.383C335.129 426.227 335.143 427.141 334.881 427.993C334.62 428.846 334.097 429.59 333.39 430.119C332.683 430.648 331.827 430.934 330.949 430.934H312.626L309.468 424.305L308.234 430.934H301.326L303.267 407.266Z" fill="#2F2E41"/>
<path d="M168.947 407.266L184.338 406.332V413.033L198.97 423.303C199.693 423.81 200.237 424.539 200.524 425.383C200.81 426.227 200.823 427.141 200.562 427.993C200.301 428.846 199.778 429.59 199.071 430.119C198.363 430.648 197.508 430.934 196.63 430.934H178.307L175.148 424.305L173.915 430.934H167.007L168.947 407.266Z" fill="#2F2E41"/>
<path d="M34.2781 408.034H5.75909C5.48078 408.034 5.21388 407.922 5.01709 407.722C4.82029 407.522 4.70972 407.251 4.70972 406.968C4.70972 406.685 4.82029 406.414 5.01709 406.214C5.21388 406.014 5.48078 405.901 5.75909 405.901H34.2781C34.5564 405.901 34.8233 406.014 35.0201 406.214C35.2169 406.414 35.3274 406.685 35.3274 406.968C35.3274 407.251 35.2169 407.522 35.0201 407.722C34.8233 407.922 34.5564 408.034 34.2781 408.034Z" fill="#E1BAFD"/>
<path d="M428.841 400.007H400.322C400.044 400.007 399.777 399.895 399.58 399.695C399.383 399.495 399.273 399.223 399.273 398.94C399.273 398.658 399.383 398.386 399.58 398.186C399.777 397.986 400.044 397.874 400.322 397.874H428.841C429.119 397.874 429.386 397.986 429.583 398.186C429.78 398.386 429.89 398.658 429.89 398.94C429.89 399.223 429.78 399.495 429.583 399.695C429.386 399.895 429.119 400.007 428.841 400.007Z" fill="#E1BAFD"/>
<path d="M440.384 389.342H411.865C411.587 389.342 411.32 389.23 411.123 389.03C410.926 388.83 410.816 388.559 410.816 388.276C410.816 387.993 410.926 387.722 411.123 387.522C411.32 387.322 411.587 387.21 411.865 387.21H440.384C440.662 387.21 440.929 387.322 441.126 387.522C441.323 387.722 441.433 387.993 441.433 388.276C441.433 388.559 441.323 388.83 441.126 389.03C440.929 389.23 440.662 389.342 440.384 389.342Z" fill="#E1BAFD"/>
<path d="M54.2161 331.251H25.6971C25.4188 331.251 25.1519 331.139 24.9551 330.939C24.7583 330.739 24.6477 330.467 24.6477 330.184C24.6477 329.902 24.7583 329.63 24.9551 329.43C25.1519 329.23 25.4188 329.118 25.6971 329.118H54.2161C54.4944 329.118 54.7613 329.23 54.9581 329.43C55.1549 329.63 55.2654 329.902 55.2654 330.184C55.2654 330.467 55.1549 330.739 54.9581 330.939C54.7613 331.139 54.4944 331.251 54.2161 331.251Z" fill="#3F3D56"/>
<path d="M54.2161 322.719H25.6971C25.4188 322.719 25.1519 322.607 24.9551 322.407C24.7583 322.207 24.6477 321.936 24.6477 321.653C24.6477 321.37 24.7583 321.099 24.9551 320.899C25.1519 320.699 25.4188 320.587 25.6971 320.587H54.2161C54.4944 320.587 54.7613 320.699 54.9581 320.899C55.1549 321.099 55.2654 321.37 55.2654 321.653C55.2654 321.936 55.1549 322.207 54.9581 322.407C54.7613 322.607 54.4944 322.719 54.2161 322.719Z" fill="#3F3D56"/>
<path d="M477.058 270.144H466.226C465.531 270.143 464.864 269.862 464.372 269.362C463.88 268.863 463.604 268.185 463.603 267.478V248.414H479.682V267.478C479.681 268.185 479.404 268.863 478.912 269.362C478.42 269.862 477.754 270.143 477.058 270.144Z" fill="#E1BAFD"/>
<path d="M55.2634 370.49H44.4315C43.736 370.49 43.0691 370.208 42.5773 369.709C42.0855 369.209 41.8088 368.531 41.8081 367.824V348.761H57.8868V367.824C57.8861 368.531 57.6095 369.209 57.1176 369.709C56.6258 370.208 55.959 370.49 55.2634 370.49Z" fill="#E1BAFD"/>
</svg>
