<svg width="364" height="565" viewBox="0 0 364 565" fill="none" xmlns="http://www.w3.org/2000/svg">
<g clip-path="url(#clip0_123_347)">
<path d="M151.632 230.827C151.632 230.827 161.072 301.941 146.549 309.926C132.027 317.912 232.958 318.634 232.958 318.634C232.958 318.634 210.448 256.952 220.613 238.083L151.632 230.827Z" fill="#ED9DA0"/>
<path d="M192.296 269.303C219.966 269.303 242.397 246.885 242.397 219.232C242.397 191.578 219.966 169.161 192.296 169.161C164.625 169.161 142.194 191.578 142.194 219.232C142.194 246.885 164.625 269.303 192.296 269.303Z" fill="#ED9DA0"/>
<path d="M306.66 318.994L298.267 357.195L280.52 438.012L279.988 442.438L273.863 493.677L269.787 527.715L267.057 550.58C250.445 559.112 238.407 565.002 238.407 565.002C238.407 565.002 237.371 559.817 235.702 553.178C224.044 556.67 202.473 562.465 184.19 563.623C190.847 571.038 88.0411 382.419 84.0958 357.198C80.9205 336.899 78.536 319.747 78.0318 316.098C77.9635 315.622 77.9299 315.376 77.9299 315.376L154.532 281.549C159.976 294.166 185.396 297.959 185.396 297.959C206.456 296.508 222.965 285.407 222.965 285.407L306.66 318.994Z" fill="#E6E6E6"/>
<path d="M361.119 494.608C356.016 500.137 343.372 508.465 328.041 517.48C322.338 520.83 316.267 524.283 310.074 527.714C295.296 535.906 279.823 544.022 267.055 550.579C250.444 559.111 238.405 565.001 238.405 565.001C238.405 565.001 237.369 559.817 235.7 553.177C233.465 544.291 230.099 532.803 226.591 527.718C226.468 527.541 226.346 527.378 226.227 527.214C225.205 525.873 224.176 525.089 223.161 525.089L273.86 493.676L295.772 480.098L279.985 442.437L260.186 395.196L272.137 357.194L284.15 318.993H306.661C306.661 318.993 314.115 335.253 323.647 357.928C325.072 361.319 326.543 364.853 328.042 368.502C347.649 416.167 372.098 482.723 361.119 494.608Z" fill="#E6E6E6"/>
<path d="M134.569 527.265C132.72 527.258 130.874 527.408 129.05 527.714C113.386 530.404 108.767 544.574 107.452 554.066C107.031 556.964 106.871 559.895 106.975 562.822L93.1413 552.186L88.0993 548.311C75.965 544.082 65.1521 536.572 55.7772 527.714C47.644 519.892 40.3484 511.246 34.0085 501.913C27.6938 492.716 22.0646 483.066 17.1662 473.043C15.7996 470.246 15.065 467.183 15.0144 464.071C14.9637 460.959 15.5983 457.874 16.8732 455.034L34.0085 416.869L59.0544 361.089C59.2365 359.761 59.4385 358.463 59.6606 357.194C64.6279 328.732 77.9335 316.095 77.9335 316.095H88.0939L94.8932 357.195L103.342 408.256L97.4206 427.553L83.7391 472.121L96.8135 486.309L134.569 527.265Z" fill="#E6E6E6"/>
<path d="M344.187 550.459V554.592C344.189 555.727 343.979 556.851 343.567 557.908C343.384 558.38 343.163 558.837 342.906 559.273C342.094 560.635 340.942 561.763 339.562 562.546C338.183 563.329 336.623 563.74 335.036 563.739H30.7904C29.2038 563.74 27.6442 563.329 26.2646 562.546C24.885 561.763 23.7327 560.635 22.9207 559.273C22.6638 558.837 22.4428 558.38 22.26 557.908C21.848 556.851 21.6378 555.727 21.6402 554.592V550.459C21.6399 549.258 21.8763 548.069 22.336 546.959C22.7957 545.85 23.4697 544.841 24.3194 543.992C25.1692 543.143 26.178 542.469 27.2883 542.01C28.3987 541.551 29.5887 541.314 30.7904 541.315H48.3298V539.387C48.3298 539.286 48.37 539.189 48.4415 539.118C48.513 539.046 48.61 539.006 48.7111 539.006H57.8613C57.9114 539.006 57.961 539.016 58.0073 539.035C58.0536 539.054 58.0957 539.082 58.1312 539.118C58.1666 539.153 58.1947 539.195 58.2138 539.241C58.2329 539.288 58.2427 539.337 58.2426 539.387V541.315H63.9589V539.387C63.9589 539.286 63.9991 539.189 64.0706 539.118C64.1421 539.046 64.2391 539.006 64.3402 539.006H73.4895C73.5396 539.006 73.5892 539.016 73.6355 539.035C73.6819 539.054 73.7239 539.082 73.7594 539.118C73.7948 539.153 73.8229 539.195 73.842 539.241C73.8612 539.288 73.8709 539.337 73.8708 539.387V541.315H79.5935V539.387C79.5935 539.286 79.6337 539.189 79.7052 539.118C79.7767 539.046 79.8737 539.006 79.9748 539.006H89.125C89.1751 539.006 89.2247 539.016 89.2711 539.035C89.3174 539.054 89.3595 539.082 89.3949 539.118C89.4303 539.153 89.4584 539.195 89.4775 539.241C89.4967 539.288 89.5064 539.337 89.5063 539.387V541.315H95.2226V539.387C95.2226 539.286 95.2628 539.189 95.3343 539.118C95.4058 539.046 95.5028 539.006 95.604 539.006H104.754C104.804 539.006 104.854 539.016 104.9 539.035C104.947 539.054 104.989 539.082 105.024 539.118C105.059 539.153 105.088 539.195 105.107 539.241C105.126 539.288 105.136 539.337 105.135 539.387V541.315H110.852V539.387C110.852 539.337 110.861 539.288 110.881 539.241C110.9 539.195 110.928 539.153 110.963 539.118C110.999 539.082 111.041 539.054 111.087 539.035C111.133 539.016 111.183 539.006 111.233 539.006H120.383C120.433 539.006 120.483 539.016 120.529 539.035C120.576 539.054 120.618 539.082 120.653 539.118C120.689 539.153 120.717 539.195 120.736 539.241C120.755 539.288 120.765 539.337 120.765 539.387V541.315H126.488V539.387C126.488 539.337 126.498 539.288 126.517 539.241C126.536 539.195 126.564 539.153 126.6 539.118C126.635 539.082 126.677 539.054 126.723 539.035C126.77 539.016 126.819 539.006 126.87 539.006H136.022C136.072 539.006 136.122 539.016 136.168 539.035C136.215 539.054 136.257 539.082 136.292 539.118C136.328 539.153 136.356 539.195 136.375 539.241C136.394 539.288 136.404 539.337 136.404 539.387V541.315H142.12V539.387C142.12 539.337 142.13 539.288 142.149 539.241C142.168 539.195 142.196 539.153 142.231 539.118C142.267 539.082 142.309 539.054 142.355 539.035C142.402 539.016 142.451 539.006 142.501 539.006H214.177C214.227 539.006 214.277 539.016 214.323 539.035C214.37 539.054 214.412 539.082 214.447 539.118C214.482 539.153 214.511 539.195 214.53 539.241C214.549 539.288 214.559 539.337 214.558 539.387V541.315H220.282V539.387C220.282 539.286 220.322 539.189 220.394 539.118C220.465 539.046 220.562 539.006 220.663 539.006H229.814C229.914 539.007 230.011 539.048 230.082 539.119C230.153 539.19 230.194 539.287 230.195 539.387V541.315H235.911V539.387C235.911 539.337 235.921 539.288 235.94 539.241C235.959 539.195 235.987 539.153 236.023 539.118C236.058 539.082 236.1 539.054 236.146 539.035C236.193 539.016 236.242 539.006 236.292 539.006H245.444C245.494 539.006 245.543 539.016 245.59 539.035C245.636 539.054 245.678 539.082 245.714 539.118C245.749 539.153 245.777 539.195 245.796 539.241C245.815 539.288 245.825 539.337 245.825 539.387V541.315H251.541V539.387C251.541 539.337 251.551 539.288 251.57 539.241C251.589 539.195 251.617 539.153 251.653 539.118C251.688 539.082 251.73 539.054 251.777 539.035C251.823 539.016 251.872 539.006 251.923 539.006H261.073C261.123 539.006 261.172 539.016 261.219 539.035C261.265 539.054 261.307 539.082 261.343 539.118C261.378 539.153 261.406 539.195 261.425 539.241C261.444 539.288 261.454 539.337 261.454 539.387V541.315H267.178V539.387C267.178 539.337 267.187 539.288 267.206 539.241C267.226 539.195 267.254 539.153 267.289 539.118C267.325 539.082 267.367 539.054 267.413 539.035C267.459 539.016 267.509 539.006 267.559 539.006H276.715C276.815 539.007 276.91 539.048 276.981 539.12C277.051 539.191 277.09 539.287 277.09 539.387V541.315H282.812V539.387C282.812 539.337 282.822 539.288 282.841 539.241C282.86 539.195 282.888 539.153 282.924 539.118C282.959 539.082 283.001 539.054 283.048 539.035C283.094 539.016 283.143 539.006 283.194 539.006H292.344C292.445 539.006 292.542 539.046 292.613 539.118C292.685 539.189 292.725 539.286 292.725 539.387V541.315H298.441V539.387C298.441 539.337 298.451 539.288 298.47 539.241C298.489 539.195 298.517 539.153 298.553 539.118C298.588 539.082 298.63 539.054 298.677 539.035C298.723 539.016 298.773 539.006 298.823 539.006H307.973C308.023 539.006 308.073 539.016 308.119 539.035C308.165 539.054 308.207 539.082 308.243 539.118C308.278 539.153 308.306 539.195 308.325 539.241C308.344 539.288 308.354 539.337 308.354 539.387V541.315H335.042C336.244 541.314 337.434 541.551 338.544 542.01C339.654 542.469 340.663 543.143 341.513 543.992C342.363 544.841 343.037 545.85 343.496 546.959C343.956 548.069 344.192 549.258 344.192 550.459H344.187Z" fill="#2F2E41"/>
<path d="M319.689 376.399H206.291V374.062H154.871V376.399H40.9953C38.9616 376.399 37.0111 377.206 35.5728 378.643C34.1345 380.08 33.326 382.029 33.325 384.062V539.252C33.325 541.285 34.1332 543.235 35.5718 544.673C37.0105 546.111 38.9617 546.918 40.9962 546.918H319.689C321.724 546.918 323.675 546.111 325.114 544.673C326.552 543.235 327.361 541.285 327.361 539.252V384.062C327.361 382.029 326.552 380.079 325.114 378.641C323.675 377.203 321.724 376.395 319.689 376.395V376.399Z" fill="#2F2E41"/>
<path d="M180.566 447.601C189.974 447.601 197.6 439.98 197.6 430.578C197.6 421.177 189.974 413.555 180.566 413.555C171.159 413.555 163.533 421.177 163.533 430.578C163.533 439.98 171.159 447.601 180.566 447.601Z" stroke="#D0CDE1" stroke-width="2" stroke-miterlimit="10"/>
<path d="M175.116 453.73C184.523 453.73 192.149 446.108 192.149 436.707C192.149 427.305 184.523 419.684 175.116 419.684C165.708 419.684 158.082 427.305 158.082 436.707C158.082 446.108 165.708 453.73 175.116 453.73Z" fill="#F2F2F2"/>
<path d="M146.259 200.121L142.722 236.191C142.722 236.191 105.59 164.194 151.766 150.881C151.766 150.881 147.269 144.796 153.795 142.771C160.32 140.747 222.185 131.038 227.117 161.308C227.117 161.308 259.435 181.326 249.654 202.743L238.129 227.926L227.696 228.505C227.696 228.505 227.402 180.573 211.467 182.165C195.532 183.758 146.259 200.121 146.259 200.121Z" fill="#2F2E41"/>
<path d="M117.743 112.16L41.3548 138.44C40.3927 138.77 39.3389 138.705 38.4246 138.259C37.5104 137.813 36.8102 137.023 36.4778 136.062L0.75442 32.4019C0.424261 31.4401 0.48918 30.3869 0.934936 29.4732C1.38069 28.5595 2.17089 27.8599 3.13219 27.5279L79.5206 1.24756C80.4827 0.917839 81.5364 0.983042 82.4507 1.42886C83.365 1.87468 84.0651 2.66472 84.3976 3.62567L120.121 107.286C120.451 108.248 120.386 109.301 119.94 110.215C119.495 111.128 118.704 111.828 117.743 112.16Z" fill="#F2F2F2"/>
<path d="M117.743 112.16L41.3548 138.44C40.3927 138.77 39.3389 138.705 38.4246 138.259C37.5104 137.813 36.8102 137.023 36.4778 136.062L0.75442 32.4019C0.424261 31.4401 0.48918 30.3869 0.934936 29.4732C1.38069 28.5595 2.17089 27.8599 3.13219 27.5279L79.5206 1.24756C80.4827 0.917839 81.5364 0.983042 82.4507 1.42886C83.365 1.87468 84.0651 2.66472 84.3976 3.62567L120.121 107.286C120.451 108.248 120.386 109.301 119.94 110.215C119.495 111.128 118.704 111.828 117.743 112.16ZM3.28039 27.9579C2.43362 28.2513 1.73771 28.868 1.34493 29.6731C0.952154 30.4782 0.89451 31.4062 1.18461 32.2539L36.908 135.914C37.2012 136.762 37.819 137.459 38.6257 137.853C39.4325 138.246 40.3623 138.303 41.2112 138.012L117.596 111.733C118.444 111.44 119.142 110.823 119.535 110.017C119.928 109.211 119.986 108.281 119.694 107.433L83.9708 3.77249C83.6769 2.92544 83.059 2.2293 82.2526 1.83663C81.4462 1.44395 80.5171 1.38676 79.6688 1.67759L3.28039 27.9579Z" fill="#D6D6E3"/>
<path d="M74.0156 33.2595L52.3973 40.6978C51.9437 40.8539 51.4467 40.8234 51.0154 40.6132C50.5842 40.4029 50.2542 40.03 50.0979 39.5765C49.9417 39.123 49.972 38.6261 50.1822 38.1951C50.3925 37.7641 50.7654 37.4343 51.219 37.2782L72.8372 29.8399C73.2908 29.6838 73.7879 29.7143 74.2191 29.9246C74.6503 30.1349 74.9804 30.5078 75.1366 30.9613C75.2929 31.4147 75.2626 31.9116 75.0523 32.3426C74.8421 32.7736 74.4692 33.1035 74.0156 33.2595Z" fill="#2F2E41"/>
<path d="M83.0574 36.6L54.3846 46.4657C53.931 46.6218 53.4339 46.5913 53.0027 46.381C52.5715 46.1707 52.2415 45.7978 52.0852 45.3443C51.9289 44.8909 51.9593 44.394 52.1695 43.9629C52.3798 43.5319 52.7527 43.2021 53.2063 43.046L81.8782 33.1805C82.3317 33.0245 82.8288 33.0549 83.26 33.2652C83.6913 33.4755 84.0213 33.8485 84.1776 34.3019C84.3338 34.7554 84.3035 35.2523 84.0933 35.6833C83.883 36.1144 83.5109 36.4439 83.0574 36.6Z" fill="#2F2E41"/>
<path d="M83.5939 61.1635L29.752 79.6902C29.2984 79.8463 28.8013 79.8158 28.3701 79.6055C27.9388 79.3952 27.6088 79.0223 27.4525 78.5688C27.2963 78.1153 27.3266 77.6184 27.5368 77.1873C27.7471 76.7563 28.12 76.4264 28.5736 76.2704L82.4155 57.7437C82.8691 57.5876 83.3662 57.6181 83.7974 57.8284C84.2287 58.0387 84.5587 58.4116 84.715 58.8651C84.8712 59.3186 84.8409 59.8155 84.6307 60.2466C84.4204 60.6776 84.0475 61.0074 83.5939 61.1635Z" fill="#D6D6E3"/>
<path d="M92.636 64.5048L31.7395 85.459C31.286 85.6151 30.7889 85.5846 30.3576 85.3743C29.9264 85.164 29.5964 84.7911 29.4401 84.3376C29.2838 83.8841 29.3142 83.3871 29.5244 82.9561C29.7347 82.525 30.1076 82.1952 30.5612 82.0391L91.4576 61.0849C91.9112 60.9288 92.4083 60.9593 92.8395 61.1696C93.2707 61.3799 93.6008 61.7528 93.757 62.2063C93.9133 62.6598 93.883 63.1568 93.6727 63.5878C93.4625 64.0189 93.0896 64.3487 92.636 64.5048Z" fill="#D6D6E3"/>
<path d="M90.1492 80.1899L36.3073 98.7166C35.8537 98.8726 35.3566 98.8422 34.9254 98.6319C34.4942 98.4215 34.1641 98.0486 34.0079 97.5951C33.8516 97.1416 33.8819 96.6447 34.0922 96.2137C34.3024 95.7826 34.6753 95.4528 35.1289 95.2967L88.9709 76.77C89.4244 76.6139 89.9215 76.6444 90.3528 76.8547C90.784 77.065 91.114 77.4379 91.2703 77.8914C91.4266 78.3449 91.3962 78.8419 91.186 79.2729C90.9757 79.7039 90.6028 80.0338 90.1492 80.1899Z" fill="#D6D6E3"/>
<path d="M99.1913 83.5311L38.2949 104.485C37.8413 104.641 37.3442 104.611 36.913 104.401C36.4817 104.19 36.1517 103.817 35.9954 103.364C35.8392 102.91 35.8695 102.413 36.0797 101.982C36.29 101.551 36.6629 101.222 37.1165 101.065L98.0129 80.1112C98.4665 79.9552 98.9636 79.9856 99.3948 80.1959C99.8261 80.4062 100.156 80.7792 100.312 81.2327C100.469 81.6862 100.438 82.1831 100.228 82.6141C100.018 83.0452 99.6449 83.375 99.1913 83.5311Z" fill="#D6D6E3"/>
<path d="M96.7048 99.217L42.8629 117.744C42.4093 117.9 41.9122 117.869 41.481 117.659C41.0498 117.449 40.7197 117.076 40.5635 116.622C40.4072 116.169 40.4375 115.672 40.6478 115.241C40.858 114.81 41.231 114.48 41.6846 114.324L95.5265 95.7972C95.9801 95.6411 96.4772 95.6715 96.9084 95.8819C97.3396 96.0922 97.6697 96.4651 97.8259 96.9186C97.9822 97.3721 97.9518 97.869 97.7416 98.3001C97.5314 98.7311 97.1584 99.0609 96.7048 99.217Z" fill="#D6D6E3"/>
<path d="M105.747 102.558L44.8505 123.513C44.3969 123.669 43.8998 123.638 43.4686 123.428C43.0374 123.217 42.7073 122.845 42.5511 122.391C42.3948 121.938 42.4251 121.441 42.6354 121.01C42.8456 120.579 43.2185 120.249 43.6721 120.093L104.569 99.1384C105.022 98.9823 105.519 99.0128 105.95 99.2231C106.382 99.4334 106.712 99.8063 106.868 100.26C107.024 100.713 106.994 101.21 106.784 101.641C106.573 102.072 106.2 102.402 105.747 102.558Z" fill="#D6D6E3"/>
<path d="M17.1674 41.8535L41.4248 33.508C42.0231 33.3022 42.6789 33.3424 43.2477 33.6198C43.8166 33.8971 44.2519 34.389 44.4581 34.9871L49.7046 50.2113C49.8067 50.5075 49.8494 50.8208 49.8303 51.1335C49.8112 51.4461 49.7307 51.7519 49.5934 52.0334C49.4561 52.3149 49.2646 52.5666 49.03 52.7741C48.7953 52.9816 48.522 53.1408 48.2258 53.2428L23.9684 61.5882C23.3703 61.7939 22.7149 61.7539 22.1463 61.4769C21.5776 61.1998 21.1422 60.7085 20.9357 60.1108L15.6885 44.8849C15.4824 44.2868 15.5224 43.6314 15.7998 43.0629C16.0771 42.4944 16.5691 42.0593 17.1674 41.8535Z" fill="#2F2E41"/>
</g>
<defs>
<clipPath id="clip0_123_347">
<rect width="364" height="565" fill="white"/>
</clipPath>
</defs>
</svg>
